<svg width="16" height="17" viewBox="0 0 16 17" fill="none" xmlns="http://www.w3.org/2000/svg">
<path d="M5.33333 0C5.56908 0 5.79517 0.0936505 5.96187 0.260349C6.12857 0.427048 6.22222 0.653141 6.22222 0.888889V1.77778H9.77778V0.888889C9.77778 0.653141 9.87143 0.427048 10.0381 0.260349C10.2048 0.0936505 10.4309 0 10.6667 0C10.9024 0 11.1285 0.0936505 11.2952 0.260349C11.4619 0.427048 11.5556 0.653141 11.5556 0.888889V1.77778H14.2222C14.6937 1.77778 15.1459 1.96508 15.4793 2.29848C15.8127 2.63187 16 3.08406 16 3.55556V15.1111C16 15.5826 15.8127 16.0348 15.4793 16.3682C15.1459 16.7016 14.6937 16.8889 14.2222 16.8889H1.77778C1.30628 16.8889 0.854097 16.7016 0.520699 16.3682C0.187301 16.0348 0 15.5826 0 15.1111V3.55556C0 3.08406 0.187301 2.63187 0.520699 2.29848C0.854097 1.96508 1.30628 1.77778 1.77778 1.77778H4.44444V0.888889C4.44444 0.653141 4.53809 0.427048 4.70479 0.260349C4.87149 0.0936505 5.09759 0 5.33333 0ZM4.44444 3.55556H1.77778V6.22222H14.2222V3.55556H11.5556V4.44444C11.5556 4.68019 11.4619 4.90628 11.2952 5.07298C11.1285 5.23968 10.9024 5.33333 10.6667 5.33333C10.4309 5.33333 10.2048 5.23968 10.0381 5.07298C9.87143 4.90628 9.77778 4.68019 9.77778 4.44444V3.55556H6.22222V4.44444C6.22222 4.68019 6.12857 4.90628 5.96187 5.07298C5.79517 5.23968 5.56908 5.33333 5.33333 5.33333C5.09759 5.33333 4.87149 5.23968 4.70479 5.07298C4.53809 4.90628 4.44444 4.68019 4.44444 4.44444V3.55556ZM14.2222 8H1.77778V15.1111H14.2222V8Z" fill="#2C2C2C"/>
</svg>
