<svg width="15" height="12" viewBox="0 0 15 12" fill="none" xmlns="http://www.w3.org/2000/svg">
<path d="M6.88244 11.3018C6.95125 11.4017 7.04332 11.4834 7.15072 11.5399C7.25813 11.5963 7.37765 11.6258 7.49898 11.6258C7.62032 11.6258 7.73984 11.5963 7.84724 11.5399C7.95465 11.4834 8.04672 11.4017 8.11553 11.3018L14.8661 1.55099C14.9442 1.43852 14.99 1.30679 14.9985 1.17011C15.0071 1.03343 14.978 0.897029 14.9144 0.775722C14.8509 0.654416 14.7553 0.552846 14.6381 0.482048C14.5208 0.411249 14.3865 0.373931 14.2495 0.374146H0.748455C0.611827 0.374711 0.477937 0.412509 0.361185 0.483477C0.244433 0.554445 0.149235 0.655897 0.0858294 0.776923C0.0224239 0.897949 -0.0067904 1.03397 0.0013282 1.17036C0.00944681 1.30674 0.0545911 1.43834 0.131906 1.55099L6.88244 11.3018Z" fill="#0153CC"/>
</svg>
